<svg version="1.1" xmlns="http://www.w3.org/2000/svg" xmlns:xlink="http://www.w3.org/1999/xlink" width="982.3977" height="512.19722" viewBox="0,0,982.3977,512.19722"><defs><linearGradient x1="368.99833" y1="-9.20138" x2="368.99833" y2="406.59862" gradientUnits="userSpaceOnUse" id="color-1"><stop offset="0" stop-color="#50788c"/><stop offset="1" stop-color="#e8d3b7"/></linearGradient><linearGradient x1="458.06037" y1="114.08854" x2="458.06037" y2="275.47361" gradientUnits="userSpaceOnUse" id="color-2"><stop offset="0" stop-color="#83a26b"/><stop offset="1" stop-color="#3c5b46"/></linearGradient><linearGradient x1="399.32395" y1="118.14301" x2="399.32395" y2="251.22059" gradientUnits="userSpaceOnUse" id="color-3"><stop offset="0" stop-color="#83a26b"/><stop offset="1" stop-color="#3c5b46"/></linearGradient><linearGradient x1="101.85049" y1="113.42992" x2="192.3948" y2="247.02209" gradientUnits="userSpaceOnUse" id="color-4"><stop offset="0" stop-color="#83a26b"/><stop offset="1" stop-color="#3c5b46"/></linearGradient><linearGradient x1="55.50409" y1="149.73993" x2="130.16663" y2="259.89958" gradientUnits="userSpaceOnUse" id="color-5"><stop offset="0" stop-color="#83a26b"/><stop offset="1" stop-color="#3c5b46"/></linearGradient><linearGradient x1="205.29131" y1="99.50735" x2="310.20676" y2="254.30318" gradientUnits="userSpaceOnUse" id="color-6"><stop offset="0" stop-color="#83a26b"/><stop offset="1" stop-color="#3c5b46"/></linearGradient><linearGradient x1="211.13119" y1="174.07206" x2="259.10055" y2="244.84769" gradientUnits="userSpaceOnUse" id="color-7"><stop offset="0" stop-color="#83a26b"/><stop offset="1" stop-color="#3c5b46"/></linearGradient><linearGradient x1="600.49833" y1="169.59862" x2="600.49833" y2="356.59862" gradientUnits="userSpaceOnUse" id="color-8"><stop offset="0" stop-color="#83a26b"/><stop offset="1" stop-color="#3c5b46"/></linearGradient><linearGradient x1="562.49833" y1="240.59862" x2="562.49833" y2="326.09862" gradientUnits="userSpaceOnUse" id="color-9"><stop offset="0" stop-color="#83a26b"/><stop offset="1" stop-color="#3c5b46"/></linearGradient><linearGradient x1="-101.22894" y1="42.31773" x2="-101.22894" y2="97.22682" gradientUnits="userSpaceOnUse" id="color-10"><stop offset="0" stop-color="#83a26b"/><stop offset="1" stop-color="#3c5b46"/></linearGradient><linearGradient x1="-101.22894" y1="42.31773" x2="-101.22894" y2="97.22682" gradientUnits="userSpaceOnUse" id="color-11"><stop offset="0" stop-color="#718d5d"/><stop offset="1" stop-color="#304938"/></linearGradient><linearGradient x1="106.10322" y1="147.62759" x2="121.4529" y2="200.34756" gradientUnits="userSpaceOnUse" id="color-12"><stop offset="0" stop-color="#83a26b"/><stop offset="1" stop-color="#3c5b46"/></linearGradient><linearGradient x1="106.10322" y1="147.62759" x2="121.4529" y2="200.34756" gradientUnits="userSpaceOnUse" id="color-13"><stop offset="0" stop-color="#718d5d"/><stop offset="1" stop-color="#304938"/></linearGradient><linearGradient x1="90.66992" y1="156.43336" x2="118.35783" y2="203.85053" gradientUnits="userSpaceOnUse" id="color-14"><stop offset="0" stop-color="#83a26b"/><stop offset="1" stop-color="#3c5b46"/></linearGradient><linearGradient x1="90.66992" y1="156.43336" x2="118.35783" y2="203.85053" gradientUnits="userSpaceOnUse" id="color-15"><stop offset="0" stop-color="#718d5d"/><stop offset="1" stop-color="#304938"/></linearGradient><linearGradient x1="117.12447" y1="151.25154" x2="144.81238" y2="198.66871" gradientUnits="userSpaceOnUse" id="color-16"><stop offset="0" stop-color="#83a26b"/><stop offset="1" stop-color="#3c5b46"/></linearGradient><linearGradient x1="117.12447" y1="151.25154" x2="144.81238" y2="198.66871" gradientUnits="userSpaceOnUse" id="color-17"><stop offset="0" stop-color="#718d5d"/><stop offset="1" stop-color="#304938"/></linearGradient><linearGradient x1="145.55777" y1="150.35486" x2="160.90744" y2="203.07483" gradientUnits="userSpaceOnUse" id="color-18"><stop offset="0" stop-color="#83a26b"/><stop offset="1" stop-color="#3c5b46"/></linearGradient><linearGradient x1="145.55777" y1="150.35486" x2="160.90744" y2="203.07483" gradientUnits="userSpaceOnUse" id="color-19"><stop offset="0" stop-color="#718d5d"/><stop offset="1" stop-color="#304938"/></linearGradient><linearGradient x1="174.55777" y1="146.62759" x2="189.90744" y2="199.34756" gradientUnits="userSpaceOnUse" id="color-20"><stop offset="0" stop-color="#83a26b"/><stop offset="1" stop-color="#3c5b46"/></linearGradient><linearGradient x1="174.55777" y1="146.62759" x2="189.90744" y2="199.34756" gradientUnits="userSpaceOnUse" id="color-21"><stop offset="0" stop-color="#718d5d"/><stop offset="1" stop-color="#304938"/></linearGradient><linearGradient x1="145.3972" y1="147.16063" x2="173.0851" y2="194.5778" gradientUnits="userSpaceOnUse" id="color-22"><stop offset="0" stop-color="#83a26b"/><stop offset="1" stop-color="#3c5b46"/></linearGradient><linearGradient x1="145.3972" y1="147.16063" x2="173.0851" y2="194.5778" gradientUnits="userSpaceOnUse" id="color-23"><stop offset="0" stop-color="#718d5d"/><stop offset="1" stop-color="#304938"/></linearGradient><linearGradient x1="202.83049" y1="148.71849" x2="218.18017" y2="201.43847" gradientUnits="userSpaceOnUse" id="color-24"><stop offset="0" stop-color="#83a26b"/><stop offset="1" stop-color="#3c5b46"/></linearGradient><linearGradient x1="202.83049" y1="148.71849" x2="218.18017" y2="201.43847" gradientUnits="userSpaceOnUse" id="color-25"><stop offset="0" stop-color="#718d5d"/><stop offset="1" stop-color="#304938"/></linearGradient><linearGradient x1="187.55777" y1="143.62759" x2="202.90744" y2="196.34757" gradientUnits="userSpaceOnUse" id="color-26"><stop offset="0" stop-color="#83a26b"/><stop offset="1" stop-color="#3c5b46"/></linearGradient><linearGradient x1="187.55777" y1="143.62759" x2="202.90744" y2="196.34757" gradientUnits="userSpaceOnUse" id="color-27"><stop offset="0" stop-color="#718d5d"/><stop offset="1" stop-color="#304938"/></linearGradient><linearGradient x1="234.01231" y1="152.26395" x2="249.36199" y2="204.98392" gradientUnits="userSpaceOnUse" id="color-28"><stop offset="0" stop-color="#83a26b"/><stop offset="1" stop-color="#3c5b46"/></linearGradient><linearGradient x1="234.01231" y1="152.26395" x2="249.36199" y2="204.98392" gradientUnits="userSpaceOnUse" id="color-29"><stop offset="0" stop-color="#718d5d"/><stop offset="1" stop-color="#304938"/></linearGradient><linearGradient x1="216.19413" y1="144.26395" x2="231.54381" y2="196.98393" gradientUnits="userSpaceOnUse" id="color-30"><stop offset="0" stop-color="#83a26b"/><stop offset="1" stop-color="#3c5b46"/></linearGradient><linearGradient x1="216.19413" y1="144.26395" x2="231.54381" y2="196.98393" gradientUnits="userSpaceOnUse" id="color-31"><stop offset="0" stop-color="#718d5d"/><stop offset="1" stop-color="#304938"/></linearGradient><linearGradient x1="244.8305" y1="147.44577" x2="260.18017" y2="200.16575" gradientUnits="userSpaceOnUse" id="color-32"><stop offset="0" stop-color="#83a26b"/><stop offset="1" stop-color="#3c5b46"/></linearGradient><linearGradient x1="244.8305" y1="147.44577" x2="260.18017" y2="200.16575" gradientUnits="userSpaceOnUse" id="color-33"><stop offset="0" stop-color="#718d5d"/><stop offset="1" stop-color="#304938"/></linearGradient><linearGradient x1="263.28504" y1="147.7185" x2="278.63472" y2="200.43847" gradientUnits="userSpaceOnUse" id="color-34"><stop offset="0" stop-color="#83a26b"/><stop offset="1" stop-color="#3c5b46"/></linearGradient><linearGradient x1="263.28504" y1="147.7185" x2="278.63472" y2="200.43847" gradientUnits="userSpaceOnUse" id="color-35"><stop offset="0" stop-color="#718d5d"/><stop offset="1" stop-color="#304938"/></linearGradient><linearGradient x1="122.37595" y1="147.90031" x2="137.72562" y2="200.62029" gradientUnits="userSpaceOnUse" id="color-36"><stop offset="0" stop-color="#83a26b"/><stop offset="1" stop-color="#3c5b46"/></linearGradient><linearGradient x1="122.37595" y1="147.90031" x2="137.72562" y2="200.62029" gradientUnits="userSpaceOnUse" id="color-37"><stop offset="0" stop-color="#718d5d"/><stop offset="1" stop-color="#304938"/></linearGradient></defs><g transform="translate(207.64937,85.0986)"><g data-paper-data="{&quot;isPaintingLayer&quot;:true}" fill-rule="nonzero" stroke-linejoin="miter" stroke-miterlimit="10" stroke-dasharray="" stroke-dashoffset="0" style="mix-blend-mode: normal"><path d="M-36.75167,406.59862v-415.8h811.5v415.8z" fill="url(#color-1)" stroke="none" stroke-width="0" stroke-linecap="butt"/><path d="M492.54201,239.98552c-12.09333,43.51441 -26.19842,36.81101 -45.69058,31.90291c-19.49216,-4.9081 -42.9901,2.8377 -30.89678,-40.67671c12.09333,-43.51441 55.19842,-121.81101 74.69058,-116.90291c19.49216,4.9081 13.9901,82.1623 1.89678,125.67671z" fill="url(#color-2)" stroke="none" stroke-width="0" stroke-linecap="butt"/><path d="M428.41731,187.59938c-4.83492,23.68291 -7.81304,53.15857 -18.57687,62.3136c-5.16074,4.3894 -17.5021,-3.59365 -22.54382,-4.62293c-4.80785,-0.98153 -12.78056,-1.61837 -15.76401,-7.20973c-6.67044,-12.50123 -4.39571,-37.77284 0.54674,-61.98247c7.15303,-35.03774 25.56339,-60.86673 41.12069,-57.69067c15.5573,3.17606 22.3703,34.15446 15.21727,69.19219z" fill="url(#color-3)" stroke="none" stroke-width="0" stroke-linecap="butt"/><path d="M201.02777,198.29981c14.40287,42.80549 -1.03403,45.17011 -19.92302,52.04324c-18.88899,6.87313 -33.99449,26.4684 -48.39736,-16.33709c-14.40287,-42.80549 -22.64905,-131.80216 -3.76006,-138.67529c18.88899,-6.87313 57.67756,60.16365 72.08044,102.96913z" fill="url(#color-4)" stroke="none" stroke-width="0" stroke-linecap="butt"/><path d="M118.5553,190.9122c9.28491,22.31697 23.35684,48.38734 19.58309,62.00474c-1.80934,6.52889 -16.50418,6.8447 -21.25511,8.82131c-4.53055,1.88492 -11.48754,5.8308 -17.09419,2.87621c-12.53545,-6.60591 -24.83097,-28.8016 -34.32238,-51.61491c-13.73658,-33.01689 -12.98799,-64.7268 1.67202,-70.82605c14.66001,-6.09925 37.68,15.72181 51.41657,48.7387z" fill="url(#color-5)" stroke="none" stroke-width="0" stroke-linecap="butt"/><path d="M287.1354,156.98816c28.9716,42.74569 39.301,86.3151 23.07135,97.31502c-15.23062,10.32281 -48.43871,-11.70605 -76.41337,-49.78508c-1.83495,-2.49772 -3.64737,-5.0645 -5.43073,-7.69573c-28.9716,-42.74569 -39.301,-86.3151 -23.07135,-97.31502c16.22965,-10.99991 52.8725,14.73512 81.8441,57.48081z" fill="url(#color-6)" stroke="none" stroke-width="0" stroke-linecap="butt"/><path d="M253.32715,197.11688c13.24637,19.54415 15.83122,40.91396 5.77341,47.73081c-10.05781,6.81685 -28.94958,-3.50067 -42.19596,-23.04482c-13.24637,-19.54415 -15.83122,-40.91396 -5.77341,-47.73081c10.05781,-6.81685 28.94958,3.50067 42.19596,23.04482z" fill="url(#color-7)" stroke="none" stroke-width="0" stroke-linecap="butt"/><path d="M635.99833,263.09862c0,51.63862 -15.89389,93.5 -35.5,93.5c-18.39924,0 -33.52922,-36.8664 -35.32217,-84.0827c-0.11761,-3.09706 -0.17783,-6.23866 -0.17783,-9.4173c0,-51.63862 15.89389,-93.5 35.5,-93.5c19.60611,0 35.5,41.86138 35.5,93.5z" fill="url(#color-8)" stroke="none" stroke-width="0" stroke-linecap="butt"/><path d="M584.49833,283.34862c0,23.61017 -9.84974,42.75 -22,42.75c-12.15026,0 -22,-19.13983 -22,-42.75c0,-23.61017 9.84974,-42.75 22,-42.75c12.15026,0 22,19.13983 22,42.75z" fill="url(#color-9)" stroke="none" stroke-width="0" stroke-linecap="butt"/><path d="M678.24834,346.59862c0,57.16147 -147.65689,80.5 -346.03777,80.5c-198.38088,0 -382.75449,-30.33853 -382.75449,-87.5c0,-31.59747 -12.51622,-96.88788 64.94501,-115.8724c62.67015,-15.35945 248.36986,-15.51929 335.12869,-2.1276c39.28876,6.06443 46.35239,6.0362 90.78722,17.61555c54.77159,14.27303 76.73526,22.17167 116.32554,37.72954c45.60301,17.92071 121.6058,54.96073 121.6058,69.65491z" fill="#83a26b" stroke="none" stroke-width="NaN" stroke-linecap="butt"/><path d="M291.49833,31.59862c0,3.26431 -3.72647,55.92707 -4.20729,59.8521c-3.66804,29.94265 -18.63864,26.1479 -64.29271,26.1479c-45.14598,0 -81.49706,7.47361 -89.29571,-23.42536c-1.12156,-4.44372 0.79571,-64.03319 0.79571,-67.57464c0,-12.27553 28.70105,-15.49716 43.72384,-3.27638c1.61387,1.31286 16.36505,18.76329 16.65659,21.73911c1.00324,10.2405 -17.43672,11.70275 -10.89529,9.43945c9.61222,-3.32578 8.05488,-23.41256 16.35953,-33.83024c4.19156,-5.25806 16.48483,-5.07193 22.65532,-5.07193c1.66445,0 9.31658,-0.81005 12.10527,7.46452c3.75848,11.15212 2.76503,32.2744 4.93605,32.42017c12.25701,0.823 16.1197,-17.48947 19.29253,-25.35986c10.32429,-25.61 32.16616,-17.65168 32.16616,1.47516z" fill="#ffffff" stroke="none" stroke-width="0" stroke-linecap="butt"/><path d="M471.75332,73.14059c-0.67805,1.94091 -14.08382,32.49449 -15.21741,34.73032c-8.64778,17.05639 -17.77012,11.75083 -47.99316,2.45189c-29.8867,-9.19545 -55.50354,-12.15583 -54.24808,-32.11641c0.18055,-2.87062 13.82742,-37.91123 14.56303,-40.01692c2.54981,-7.29887 22.21912,-3.3685 29.62579,6.9577c0.79569,1.10932 6.93627,14.48968 6.51115,16.31845c-1.46296,6.29321 -13.97397,3.40674 -9.17341,3.39339c7.05412,-0.01962 10.19548,-12.28016 17.85708,-16.78287c3.867,-2.27263 11.9665,0.34197 16.05137,1.59879c1.10187,0.33902 6.33584,1.41598 6.46321,6.90394c0.17166,7.39644 -4.87342,19.75312 -3.46649,20.282c7.94321,2.98589 14.30408,-7.11571 18.0393,-11.14909c12.15428,-13.12449 24.96056,-3.94377 20.98762,7.4288z" fill="#ffffff" stroke="none" stroke-width="0" stroke-linecap="butt"/><path d="M600.63425,68.71941c0,2.73323 -2.10381,46.82816 -2.37526,50.11462c-2.07083,25.07121 -10.5226,21.89384 -36.29699,21.89384c-25.48755,0 -46.00985,6.2577 -50.41265,-19.61424c-0.63319,-3.72075 0.44923,-53.61548 0.44923,-56.58075c0,-10.2784 16.20342,-12.97589 24.68466,-2.74334c0.91113,1.09927 9.23903,15.71064 9.40362,18.20232c0.56639,8.57445 -9.84405,9.79881 -6.15103,7.90373c5.42667,-2.7847 4.54746,-19.60352 9.23591,-28.32632c2.36638,-4.40261 9.30665,-4.24677 12.79026,-4.24677c0.93968,0 5.25975,-0.67826 6.83413,6.2501c2.12188,9.33775 1.56102,27.02359 2.78668,27.14565c6.9198,0.68911 9.10051,-14.64407 10.89176,-21.234c5.82867,-21.44344 18.15968,-14.77988 18.15968,1.23516z" fill="#ffffff" stroke="none" stroke-width="0" stroke-linecap="butt"/><path d="M-102.51985,94.03498l-6.5,27" fill="#4e1a00" stroke="#3d1f0c" stroke-width="10" stroke-linecap="round"/><path d="M-91.22894,42.31772l0.72727,54.90909l-21.45455,-6.54545z" fill="url(#color-10)" stroke="url(#color-11)" stroke-width="10" stroke-linecap="round"/><path d="M123.6352,228.33882l-8.00162,-26.59368" fill="#4e1a00" stroke="#3d1f0c" stroke-width="10" stroke-linecap="round"/><path d="M119.32118,197.64385l1.30692,27.74062" fill="#4e1a00" stroke="#3d1f0c" stroke-width="10" stroke-linecap="round"/><path d="M115.70454,144.83212l16.04795,52.51667l-22.42895,-0.28695z" fill="url(#color-12)" stroke="url(#color-13)" stroke-width="10" stroke-linecap="round"/><path d="M99.3055,151.39086l28.31595,47.05044l-21.82778,5.16608z" fill="url(#color-14)" stroke="url(#color-15)" stroke-width="10" stroke-linecap="round"/><path d="M150.08975,223.157l-8.00162,-26.59368" fill="#4e1a00" stroke="#3d1f0c" stroke-width="10" stroke-linecap="round"/><path d="M125.76005,146.20904l28.31595,47.05044l-21.82778,5.16608z" fill="url(#color-16)" stroke="url(#color-17)" stroke-width="10" stroke-linecap="round"/><path d="M158.77573,200.37112l1.30692,27.74062" fill="#4e1a00" stroke="#3d1f0c" stroke-width="10" stroke-linecap="round"/><path d="M155.15909,147.55939l16.04795,52.51667l-22.42895,-0.28695z" fill="url(#color-18)" stroke="url(#color-19)" stroke-width="10" stroke-linecap="round"/><path d="M178.36247,219.06609l-8.00163,-26.59369" fill="#4e1a00" stroke="#3d1f0c" stroke-width="10" stroke-linecap="round"/><path d="M187.77573,196.64384l1.30692,27.74062" fill="#4e1a00" stroke="#3d1f0c" stroke-width="10" stroke-linecap="round"/><path d="M184.15909,143.83212l16.04795,52.51667l-22.42895,-0.28695z" fill="url(#color-20)" stroke="url(#color-21)" stroke-width="10" stroke-linecap="round"/><path d="M154.03277,142.11813l28.31595,47.05045l-21.82778,5.16607z" fill="url(#color-22)" stroke="url(#color-23)" stroke-width="10" stroke-linecap="round"/><path d="M202.08265,221.38447l-1.30691,-27.74062" fill="#4e1a00" stroke="#3d1f0c" stroke-width="10" stroke-linecap="round"/><path d="M217.35537,226.47537l-1.30692,-27.74062" fill="#4e1a00" stroke="#3d1f0c" stroke-width="10" stroke-linecap="round"/><path d="M212.43181,145.92303l16.04795,52.51667l-22.42895,-0.28695z" fill="url(#color-24)" stroke="url(#color-25)" stroke-width="10" stroke-linecap="round"/><path d="M197.15909,140.83211l16.04795,52.51667l-22.42895,-0.28694z" fill="url(#color-26)" stroke="url(#color-27)" stroke-width="10" stroke-linecap="round"/><path d="M230.71901,222.02083l-1.30692,-27.74062" fill="#4e1a00" stroke="#3d1f0c" stroke-width="10" stroke-linecap="round"/><path d="M247.23027,202.28021l1.30692,27.74062" fill="#4e1a00" stroke="#3d1f0c" stroke-width="10" stroke-linecap="round"/><path d="M243.61363,149.46848l16.04795,52.51667l-22.42895,-0.28695z" fill="url(#color-28)" stroke="url(#color-29)" stroke-width="10" stroke-linecap="round"/><path d="M225.79545,141.46849l16.04795,52.51667l-22.42895,-0.28695z" fill="url(#color-30)" stroke="url(#color-31)" stroke-width="10" stroke-linecap="round"/><path d="M258.04846,197.46203l1.30692,27.74062" fill="#4e1a00" stroke="#3d1f0c" stroke-width="10" stroke-linecap="round"/><path d="M254.43182,144.65031l16.04795,52.51667l-22.42895,-0.28695z" fill="url(#color-32)" stroke="url(#color-33)" stroke-width="10" stroke-linecap="round"/><path d="M277.80992,225.47538l-1.30692,-27.74062" fill="#4e1a00" stroke="#3d1f0c" stroke-width="10" stroke-linecap="round"/><path d="M272.88636,144.92303l16.04795,52.51667l-22.42895,-0.28695z" fill="url(#color-34)" stroke="url(#color-35)" stroke-width="10" stroke-linecap="round"/><path d="M135.59391,197.91657l1.30692,27.74062" fill="#4e1a00" stroke="#3d1f0c" stroke-width="10" stroke-linecap="round"/><path d="M131.97727,145.10485l16.04795,52.51667l-22.42895,-0.28695z" fill="url(#color-36)" stroke="url(#color-37)" stroke-width="10" stroke-linecap="round"/><path d="M-49.50167,-67.40138c0,3.2643 -3.72647,55.92707 -4.20729,59.8521c-3.66804,29.94264 -18.63864,26.1479 -64.29271,26.1479c-45.14598,0 -81.49706,7.4736 -89.29571,-23.42536c-1.12156,-4.44371 0.79571,-64.0332 0.79571,-67.57463c0,-12.27553 28.70105,-15.49716 43.72385,-3.27638c1.61387,1.31285 16.36505,18.76328 16.65659,21.7391c1.00324,10.2405 -17.43672,11.70275 -10.89529,9.43945c9.61222,-3.32578 8.05488,-23.41256 16.35953,-33.83024c4.19156,-5.25806 16.48483,-5.07194 22.65532,-5.07194c1.66445,0 9.31658,-0.81005 12.10527,7.46452c3.75848,11.15212 2.76504,32.2744 4.93604,32.42017c12.25701,0.82301 16.1197,-17.48947 19.29253,-25.35985c10.3243,-25.60999 32.16616,-17.65168 32.16616,1.47517z" fill="#ffffff" stroke="none" stroke-width="0" stroke-linecap="butt"/><path d="M51.49833,46.59862c0,3.26431 -3.72647,55.92707 -4.20729,59.8521c-3.66804,29.94265 -18.63864,26.1479 -64.29271,26.1479c-45.14598,0 -81.49706,7.47361 -89.29571,-23.42536c-1.12156,-4.44372 0.79571,-64.03319 0.79571,-67.57464c0,-12.27553 28.70105,-15.49716 43.72384,-3.27638c1.61387,1.31286 16.36505,18.76329 16.65659,21.73911c1.00324,10.2405 -17.43672,11.70275 -10.89529,9.43945c9.61222,-3.32578 8.05488,-23.41256 16.35953,-33.83024c4.19156,-5.25806 16.48483,-5.07193 22.65532,-5.07193c1.66445,0 9.31658,-0.81005 12.10527,7.46452c3.75848,11.15212 2.76503,32.2744 4.93605,32.42017c12.25701,0.823 16.1197,-17.48947 19.29253,-25.35986c10.32429,-25.61 32.16616,-17.65168 32.16616,1.47516z" fill="#ffffff" stroke="none" stroke-width="0" stroke-linecap="butt"/></g></g></svg>